<svg id="svg" version="1.1" fill="current" xmlns="http://www.w3.org/2000/svg" xmlns:xlink="http://www.w3.org/1999/xlink" width="400" height="263.88888888888886" viewBox="0, 0, 400,263.88888888888886"><g id="svgg"><path id="path0" d="M167.077 18.000 C 100.306 29.752,48.611 77.307,48.611 126.978 C 48.611 180.059,106.445 189.570,149.809 143.621 C 193.871 96.933,175.681 44.241,124.194 69.423 C 112.066 75.354,87.500 101.511,87.500 108.492 C 87.500 111.550,90.131 109.050,95.488 100.901 C 128.383 50.868,188.706 57.707,165.475 108.835 C 145.619 152.534,97.620 180.821,70.436 164.842 C 29.163 140.582,56.363 67.837,118.366 36.658 C 155.114 18.178,183.283 18.063,243.868 36.146 C 256.300 39.857,268.703 43.312,271.430 43.823 C 278.137 45.081,277.949 45.470,265.625 55.878 C 240.184 77.362,224.757 95.982,184.768 153.472 C 132.790 228.198,111.086 244.776,68.056 242.616 C 40.657 241.241,28.507 234.576,30.014 221.749 C 30.778 215.246,30.500 213.833,27.949 211.282 C 22.073 205.407,14.396 209.306,15.724 217.491 C 20.333 245.892,83.832 255.048,130.068 233.978 C 167.137 217.084,182.528 199.789,211.172 142.836 C 232.542 100.347,244.620 81.671,261.781 64.583 C 282.002 44.448,279.563 45.638,296.957 47.415 C 330.637 50.856,361.895 43.995,376.736 29.903 C 382.874 24.075,381.132 23.189,374.096 28.560 C 356.547 41.955,339.908 43.315,305.208 34.189 C 258.833 21.993,248.433 19.532,234.539 17.469 C 214.971 14.563,185.273 14.797,167.077 18.000 M252.985 172.569 C 246.326 176.167,221.892 197.416,217.759 203.205 C 211.813 211.532,217.226 208.147,230.886 194.995 C 252.267 174.410,263.889 167.598,263.889 175.652 C 263.889 178.065,256.097 188.453,237.610 210.685 C 209.136 244.928,209.393 244.444,219.665 244.444 C 227.576 244.444,224.802 246.750,250.694 218.658 C 277.321 189.771,296.831 173.653,305.208 173.622 C 311.758 173.599,310.276 175.811,278.125 214.061 C 252.572 244.461,252.580 244.444,263.120 244.444 L 270.685 244.444 295.632 217.653 C 324.278 186.889,343.680 171.352,351.975 172.536 C 357.751 173.360,355.316 177.208,338.455 193.899 C 313.487 218.615,307.183 232.397,316.560 241.774 C 321.312 246.525,323.601 246.723,331.638 243.074 C 342.620 238.090,377.137 208.429,374.123 206.566 C 373.337 206.081,366.806 211.068,359.611 217.650 C 337.165 238.181,326.832 244.916,322.850 241.611 C 319.093 238.493,320.805 235.861,338.241 217.954 C 356.959 198.729,362.462 190.054,362.486 179.729 C 362.522 164.666,348.575 166.272,325.373 184.003 L 315.329 191.678 316.182 185.459 C 318.944 165.303,305.633 164.747,280.742 183.978 L 270.576 191.833 271.691 187.236 C 275.477 171.627,267.014 164.991,252.985 172.569 " stroke="none" fill-rule="evenodd"></path></g></svg>